<svg width="56" height="59" viewBox="0 0 56 59" fill="none" xmlns="http://www.w3.org/2000/svg">
<path d="M23.3126 13.0035C24.6418 12.5227 26.0416 12.1975 27.4839 12.0419L29.2656 5.53754L31.0331 12.0419C32.4753 12.1975 33.8611 12.5227 35.1761 13.0035H35.2892L38.6262 1.50764C37.495 1.12586 36.3356 0.814782 35.1619 0.588542L33.1682 8.9877L30.9199 0.178482H27.6819L25.4336 9.04426L23.4116 0.645102C22.238 0.885482 21.0785 1.2107 19.9332 1.60662L23.2561 13.0176H23.3409L23.3126 13.0035ZM15.9315 18.2494L12.6228 12.4237L18.4485 15.7608C19.5655 14.8558 20.7957 14.1064 22.1107 13.4984L22.1673 13.4418L16.4547 3.03476C15.3801 3.57208 14.3479 4.16596 13.3439 4.8164L17.8263 12.1126L10.0069 7.47472L7.7162 9.7654L12.3824 17.6272L5.0296 13.1166C4.36502 14.1205 3.757 15.1669 3.21968 16.2415L13.6126 21.9541C14.2347 20.6108 15.0124 19.3665 15.9457 18.2353L15.9315 18.2494ZM36.4628 13.5266C37.7637 14.1205 38.9797 14.8841 40.0827 15.7749L45.9366 12.4379L42.5854 18.2635C43.4763 19.3523 44.2257 20.5401 44.8337 21.8127C44.862 21.8692 44.8761 21.9117 44.9044 21.9541L55.5235 16.1143C54.9862 15.0396 54.3782 14.0074 53.7136 13.0035L46.2336 17.599L50.8715 9.77954L48.5808 7.48886L40.719 12.1551L45.3003 4.68914C44.2964 4.0387 43.2359 3.44482 42.1471 2.9075L36.378 13.4135L36.4628 13.4984V13.5266ZM12.0996 30.8199L5.72246 29.0665L12.1279 27.3273C12.2834 25.8284 12.6369 24.4003 13.1601 23.0429L1.76326 19.7341C1.36734 20.8653 1.05626 22.0248 0.801744 23.1843L9.17262 25.178L0.363403 27.4263V30.6643L9.22918 32.9126L0.745184 34.9487C0.985564 36.1365 1.2825 37.296 1.66428 38.4413L13.0894 35.1184C12.5804 33.7468 12.2551 32.3046 12.1137 30.8057L12.0996 30.8199ZM34.1297 45.7093C33.1116 46.0062 32.0653 46.2183 30.9765 46.3314L29.2514 52.652L27.5405 46.3456C26.0275 46.19 24.5711 45.8507 23.1995 45.3416L19.8342 56.894C20.9654 57.2899 22.1249 57.6152 23.2985 57.8555L25.3629 49.2019L27.6112 58.0111H30.8492L33.0975 49.1453L35.1902 57.898C36.378 57.6576 37.5516 57.3465 38.6969 56.9506L35.3175 45.3134C34.9216 45.4548 34.5256 45.5962 34.1156 45.7093H34.1297ZM55.6508 42.1036L45.0175 36.2638C44.4095 37.6353 43.6177 38.9079 42.6703 40.0674L45.9083 45.7517L40.2382 42.4995C39.0787 43.4469 37.8203 44.2387 36.4487 44.8609L42.2885 55.48C43.3773 54.9427 44.4095 54.3488 45.4134 53.6984L40.719 46.0628L48.5384 50.7007L50.8291 48.41L46.1487 40.5482L53.8267 45.2568C54.4913 44.2529 55.0852 43.1924 55.6225 42.1036H55.6508ZM18.3071 42.4854L12.6086 45.7234L15.875 40.025C14.9417 38.8797 14.1499 37.6071 13.5419 36.2355L3.09242 41.9763C3.6156 43.0651 4.20948 44.0973 4.85992 45.1013L12.2976 40.5199L7.65964 48.3393L9.95032 50.63L17.8122 45.9638L13.1742 53.5428C14.1782 54.2074 15.2245 54.8154 16.3133 55.3669L22.0966 44.8326C20.725 44.2104 19.4665 43.4045 18.3212 42.4712L18.3071 42.4854Z" fill="url(#paint0_linear_1_13650)"/>
<defs>
<linearGradient id="paint0_linear_1_13650" x1="0.349263" y1="29.0806" x2="55.6508" y2="29.0806" gradientUnits="userSpaceOnUse">
<stop stop-color="#00C1CE"/>
<stop offset="0.8" stop-color="#00FFDC"/>
</linearGradient>
</defs>
</svg>
