<?xml version="1.0" encoding="UTF-8" standalone="no"?>
<!DOCTYPE svg PUBLIC "-//W3C//DTD SVG 1.1//EN" "http://www.w3.org/Graphics/SVG/1.1/DTD/svg11.dtd">
<svg width="100%" height="100%" viewBox="0 0 3000 3000" version="1.1" xmlns="http://www.w3.org/2000/svg" xmlns:xlink="http://www.w3.org/1999/xlink" xml:space="preserve" xmlns:serif="http://www.serif.com/" style="fill-rule:evenodd;clip-rule:evenodd;stroke-linejoin:round;stroke-miterlimit:2;">
    <g transform="matrix(2.02956,0,0,2.02956,-529.556,-330.802)">
        <g id="EGA-BOLD" serif:id="EGA BOLD">
            <g transform="matrix(1.58062,0,0,1.58062,135.013,-525.303)">
                <g transform="matrix(0.632661,0,0,0.632661,-85.4177,332.339)">
                    <path d="M1344.76,952.425L1222.43,952.425L1222.43,1000L1164.97,1000L1164.97,822.058C1164.97,820.204 1165.59,818.196 1166.82,816.034C1168.06,813.871 1169.6,811.915 1171.45,810.164C1173.31,808.413 1175.37,806.972 1177.63,805.839C1179.9,804.706 1182.16,804.14 1184.43,804.14L1382.76,804.14C1384.82,804.14 1387.04,804.706 1389.4,805.839C1391.77,806.972 1393.88,808.413 1395.74,810.164C1397.59,811.915 1399.13,813.871 1400.37,816.034C1401.61,818.196 1402.22,820.204 1402.22,822.058L1402.22,1000L1344.76,1000L1344.76,952.425ZM1118.63,894.347C1118.63,892.493 1118.01,890.485 1116.78,888.323C1115.54,886.16 1113.99,884.204 1112.14,882.453C1110.29,880.703 1108.18,879.261 1105.81,878.128C1103.44,876.995 1101.23,876.429 1099.17,876.429L967.872,876.429L967.872,927.402L1061.17,927.402L1061.17,948.409L938.832,948.409L938.832,855.731L1118.63,855.731L1118.63,804.14L901.143,804.14C899.084,804.14 896.921,804.603 894.656,805.53C892.39,806.457 890.279,807.744 888.323,809.392C886.366,811.039 884.719,812.944 883.38,815.107C882.041,817.269 881.372,819.586 881.372,822.058L881.372,982.082C881.372,983.936 881.99,985.944 883.225,988.106C884.461,990.269 886.006,992.225 887.859,993.976C889.713,995.727 891.772,997.168 894.038,998.301C896.303,999.434 898.569,1000 900.834,1000L1099.17,1000C1101.23,1000 1103.44,999.434 1105.81,998.301C1108.18,997.168 1110.29,995.727 1112.14,993.976C1113.99,992.225 1115.54,990.269 1116.78,988.106C1118.01,985.944 1118.63,983.936 1118.63,982.082L1118.63,894.347ZM1222.43,901.143L1344.76,901.143L1344.76,855.731L1222.43,855.731L1222.43,901.143Z" style="fill-rule:nonzero;"/>
                </g>
                <g transform="matrix(-1,0,0,1,735.648,-3.97904e-13)">
                    <path d="M406.522,919.266L292.772,919.266L292.772,886.821L406.522,886.821L406.522,873.726L292.772,873.726L292.772,841.087L430.562,841.087C431.865,841.087 433.266,841.445 434.764,842.162C436.263,842.879 437.598,843.791 438.771,844.898C439.944,846.006 440.921,847.243 441.703,848.612C442.484,849.98 442.875,851.25 442.875,852.423L442.875,953.664C442.875,954.837 442.484,956.107 441.703,957.475C440.921,958.843 439.944,960.081 438.771,961.189C437.598,962.296 436.263,963.208 434.764,963.925C433.266,964.642 431.865,965 430.562,965L292.772,965L292.772,932.36L406.522,932.36L406.522,919.266Z" style="fill-rule:nonzero;"/>
                </g>
            </g>
            <g transform="matrix(1.17006,0,0,1.17006,-98.5676,-312.395)">
                <path d="M849.345,1154.31L822.769,1154.31L822.769,1162.86L830.703,1162.86L830.703,1211.78L841.334,1211.78L841.334,1162.86L849.345,1162.86L849.345,1154.31Z" style="fill-rule:nonzero;"/>
                <path d="M902.344,1165.48L891.713,1165.48L891.713,1211.78L917.211,1211.78L917.211,1203.23L902.344,1203.23L902.344,1183.04L911.896,1183.04L911.896,1174.49L902.344,1174.49L902.344,1165.48Z" style="fill-rule:nonzero;"/>
                <g transform="matrix(1,0,0,-1,0,2366.09)">
                    <path d="M902.344,1165.48L891.713,1165.48L891.713,1211.78L917.211,1211.78L917.211,1203.23L902.344,1203.23L902.344,1165.48Z" style="fill-rule:nonzero;"/>
                </g>
                <path d="M975.525,1195.21L975.525,1200.61C975.525,1202.07 974.369,1203.23 972.829,1203.23C971.365,1203.23 970.21,1202.07 970.21,1200.61L970.21,1165.48C970.21,1164.02 971.365,1162.86 972.829,1162.86C974.369,1162.86 975.525,1164.02 975.525,1165.48L975.525,1170.87L986.155,1170.87L986.155,1165.48C986.155,1158.16 980.224,1154.31 972.829,1154.31C965.511,1154.31 959.579,1158.16 959.579,1165.48L959.579,1198.45C959.579,1205.85 965.511,1211.78 972.829,1211.78C980.224,1211.78 986.155,1205.85 986.155,1198.45L986.155,1195.21L975.525,1195.21Z" style="fill-rule:nonzero;"/>
                <path d="M1044.39,1154.31L1044.39,1176.11L1039.08,1176.11L1039.08,1154.31L1028.45,1154.31L1028.45,1211.78L1039.08,1211.78L1039.08,1184.58L1044.39,1184.58L1044.39,1211.78L1055.02,1211.78L1055.02,1154.31L1044.39,1154.31Z" style="fill-rule:nonzero;"/>
            </g>
        </g>
    </g>
</svg>
